<svg width="3060" height="1266" viewBox="0 0 3060 1266" fill="none" xmlns="http://www.w3.org/2000/svg">
<path d="M2429.79 651.645C2422.79 476.369 2275.17 335.327 2093.97 335.327C1908.57 335.327 1757.45 483.216 1757.45 664.654C1757.45 846.092 1908.57 993.981 2093.97 993.981C2165.33 993.981 2231.79 972.071 2286.36 934.414V987.819H2431.19L2429.79 653.015V651.645ZM2093.97 852.938C1988.33 852.938 1902.27 768.724 1902.27 665.339C1902.27 561.953 1988.33 477.739 2093.97 477.739C2199.61 477.739 2285.66 561.953 2285.66 665.339C2285.66 768.724 2199.61 852.938 2093.97 852.938Z" fill="white"/>
<path d="M1503.24 798.165C1486.01 814.597 1466.03 828.29 1443.29 837.876C1421.24 847.461 1396.43 852.254 1370.25 852.254C1356.46 852.254 1343.37 850.884 1330.97 848.146C1318.56 845.407 1306.16 841.299 1294.45 836.506C1282.73 831.029 1271.71 824.867 1261.37 818.02C1251.03 810.489 1241.39 802.273 1233.12 793.372L1559.05 668.077L1697.56 614.673C1689.98 566.746 1672.75 521.558 1646.57 482.532C1587.31 393.524 1485.32 335.327 1370.25 335.327C1187.64 335.327 1038.8 483.216 1038.8 664.654C1038.8 681.771 1040.18 698.203 1042.93 714.635C1050.51 762.562 1067.74 807.75 1093.92 846.776C1109.08 868.686 1126.31 889.226 1146.29 907.027C1166.28 924.829 1187.64 940.576 1211.76 953.585C1235.19 966.594 1260.68 976.864 1287.56 983.711C1314.43 990.557 1341.99 993.981 1370.93 993.981C1416.41 993.981 1460.51 985.08 1499.79 967.963C1539.76 951.531 1574.9 926.883 1605.22 897.442C1635.54 867.317 1659.66 832.398 1676.2 792.688C1683.09 776.255 1688.6 758.454 1692.73 740.653H1542.52C1533.56 762.562 1520.46 781.733 1503.24 798.165ZM1370.93 476.37C1424.68 476.37 1473.61 499.648 1508.06 535.251L1182.13 660.546C1184.19 559.215 1268.26 476.37 1370.93 476.37Z" fill="white"/>
<path d="M2915.15 988.991H3059.31L3060 603.464C3060 437.942 2953.08 330.353 2788.22 330.353C2626.13 330.353 2513 442.77 2513 603.464L2512.31 988.301H2656.48L2657.17 599.326C2657.17 524.841 2712.35 470.357 2788.22 470.357C2906.18 470.357 2915.83 568.98 2915.83 599.326L2915.15 988.991Z" fill="white"/>
<path d="M677.48 332.425L565.045 244.837L473.994 365.529C336.037 300.01 166.35 336.563 69.7796 461.394C-42.6553 606.225 -16.4435 814.506 128.411 926.923C183.594 969.683 247.744 992.442 312.584 995.89C418.121 1002.1 525.038 957.958 594.016 868.301C691.276 743.47 684.378 569.672 587.118 452.428L677.48 332.425ZM480.892 780.712C416.742 862.783 298.099 877.956 215.324 813.816C133.24 749.677 118.065 630.364 182.215 548.292C213.255 508.291 258.091 482.774 307.755 476.567C319.482 475.187 331.208 474.498 342.935 475.187C380.873 477.256 417.431 491.05 447.782 514.499C529.866 579.328 545.042 698.641 480.892 780.712Z" fill="white"/>
<path d="M684.379 928.302C665.754 952.44 645.061 973.82 622.298 993.821C600.225 1012.44 576.082 1029.68 550.56 1044.17C525.728 1057.96 498.826 1069.68 471.925 1078.65C445.023 1087.62 416.742 1093.82 388.461 1097.27C360.18 1100.72 331.899 1102.1 302.928 1100.03C273.957 1097.96 245.675 1093.13 218.084 1086.24L211.876 1109L183.595 1224.17C219.464 1233.83 256.022 1239.34 293.271 1242.1C294.65 1242.1 296.72 1242.1 298.099 1242.1C333.968 1244.17 370.527 1242.79 405.706 1238.65C442.954 1233.83 480.202 1225.55 516.071 1213.83C551.94 1202.1 587.119 1186.93 620.229 1168.31C654.028 1149.69 685.758 1126.93 715.419 1102.1C745.77 1076.58 773.361 1047.62 797.503 1015.89C800.952 1011.75 803.711 1006.92 807.16 1002.1L692.656 917.267C689.207 920.715 687.138 924.854 684.379 928.302Z" fill="white"/>
<path d="M916.148 725.536L915.458 0H771.293L771.983 722.087C771.983 874.505 874.071 982.783 1023.06 993.818V851.746C960.294 841.4 916.148 791.744 916.148 725.536Z" fill="white"/>
</svg>
