<svg width="950" height="950" viewBox="0 0 950 950" fill="none" xmlns="http://www.w3.org/2000/svg">
<rect width="950" height="950" fill="#343CED"/>
<path d="M646.998 203.393L573.535 146.155L514.043 225.027C423.904 182.211 313.034 206.098 249.937 287.673C176.474 382.319 193.6 518.428 288.246 591.891C324.301 619.834 366.216 634.707 408.581 636.961C477.537 641.017 547.394 612.173 592.464 553.583C656.012 472.007 651.505 358.432 587.957 281.814L646.998 203.393ZM518.55 496.344C476.636 549.977 399.116 559.892 345.033 517.978C291.4 476.063 281.485 398.093 323.4 344.46C343.681 318.32 372.976 301.645 405.426 297.588C413.088 296.687 420.75 296.236 428.411 296.687C453.199 298.039 477.086 307.053 496.917 322.377C550.549 364.742 560.465 442.712 518.55 496.344Z" fill="white"/>
<path d="M651.506 592.791C639.338 608.566 625.817 622.537 610.944 635.607C596.522 647.776 580.748 659.044 564.072 668.508C547.847 677.522 530.27 685.184 512.693 691.043C495.116 696.902 476.637 700.958 458.159 703.211C439.68 705.465 421.202 706.366 402.273 705.014C383.344 703.662 364.865 700.507 346.837 696L342.781 710.873L324.303 786.139C347.739 792.449 371.626 796.054 395.963 797.857C396.864 797.857 398.217 797.857 399.118 797.857C422.554 799.209 446.441 798.308 469.426 795.604C493.764 792.449 518.101 787.04 541.537 779.379C564.973 771.717 587.959 761.802 609.592 749.633C631.676 737.464 652.408 722.591 671.788 706.366C691.618 689.691 709.646 670.762 725.42 650.03C727.674 647.325 729.476 644.171 731.73 641.016L656.915 585.58C654.661 587.834 653.309 590.538 651.506 592.791Z" fill="white"/>
</svg>
