<svg version="1.2" xmlns="http://www.w3.org/2000/svg" viewBox="0 0 2000 827" width="2000" height="827">
	<title>banner-logo-svg</title>
	<style>
		.s0 { fill: #ffffff } 
	</style>
	<path id="Layer" fill-rule="evenodd" class="s0" d="m1588.1 426.6l0.9 218.7h-94.6v-34.9c-35.7 24.6-79.2 38.9-125.8 38.9-121.2 0-219.9-96.6-219.9-215.1 0-118.5 98.7-215.2 219.9-215.2 118.4 0 214.9 92.2 219.5 206.7zm-94.2 8c0-67.7-56-122.5-125.3-122.5-69.3 0-125.3 54.8-125.3 122.5 0 67.8 56 122.6 125.3 122.6 69.3 0 125.3-54.8 125.3-122.6z"/>
	<path id="Layer" fill-rule="evenodd" class="s0" d="m1008.2 483.8h98.2c-2.7 11.7-6.3 23.3-10.8 34-10.9 26-26.6 48.8-46.4 68.4-19.9 19.3-42.8 35.4-68.9 46.1-25.7 11.2-54.5 17-84.3 17-18.9 0-36.9-2.2-54.5-6.7-17.5-4.5-34.2-11.2-49.5-19.7-15.8-8.5-29.7-18.8-42.8-30.4-13-11.6-24.3-25-34.2-39.4-17.1-25.4-28.4-55-33.3-86.3-1.8-10.7-2.7-21.4-2.7-32.6 0-118.5 97.2-215.2 216.6-215.2 75.2 0 141.9 38.1 180.6 96.2 17.1 25.5 28.4 55 33.3 86.3l-90.5 34.9-213 81.9c5.4 5.8 11.7 11.1 18.4 16.1q10.2 6.7 21.6 12c7.7 3.2 15.8 5.9 23.9 7.6q12.2 2.7 25.7 2.7c17.1 0 33.3-3.1 47.7-9.4 14.9-6.2 27.9-15.2 39.2-25.9q16.9-16.1 25.7-37.6zm-235.6-52.3l213.1-81.9c-22.6-23.2-54.5-38.4-89.7-38.4-67.1 0-122 54.1-123.4 120.3z"/>
	<path id="Layer" class="s0" d="m1905.3 646h94.2l0.5-251.8c0-108.1-69.9-178.4-177.6-178.4-106 0-179.9 73.4-179.9 178.4l-0.5 251.4h94.3l0.4-254.1c0-48.7 36.1-84.2 85.7-84.2 77.1 0 83.4 64.4 83.4 84.2z"/>
	<path id="Layer" fill-rule="evenodd" class="s0" d="m383.7 295.5c63.6 76.6 68.1 190.2 4.5 271.7-45 58.6-114.9 87.4-183.9 83.4-42.4-2.3-84.3-17.2-120.4-45.1-94.6-73.4-111.8-209.5-38.3-304.1 63.1-81.5 174-105.4 264.2-62.6l59.5-78.9 73.5 57.3zm-91.1 40.5c-19.8-15.3-43.7-24.3-68.5-25.7-7.7-0.4-15.3 0-23 0.9-32.5 4.1-61.8 20.7-82 46.9-42 53.6-32.1 131.5 21.6 173.4 54.1 41.9 131.6 32 173.6-21.6 41.9-53.6 32-131.6-21.7-173.9z"/>
	<path id="Layer" class="s0" d="m447.3 606.4c-12.2 15.8-25.7 29.7-40.6 42.8-14.4 12.2-30.2 23.4-46.9 32.9-16.2 9-33.8 16.7-51.4 22.5-17.5 5.9-36 9.9-54.5 12.2-18.5 2.2-37 3.1-55.9 1.8-18.9-1.4-37.4-4.5-55.5-9l-4 14.8-18.5 75.3c23.4 6.3 47.3 9.9 71.7 11.7 0.9 0 2.2 0 3.1 0 23.5 1.3 47.4 0.4 70.4-2.3 24.3-3.1 48.7-8.5 72.1-16.2 23.4-7.6 46.4-17.6 68.1-29.7 22.1-12.2 42.8-27 62.2-43.3 19.8-16.6 37.9-35.6 53.6-56.3 2.3-2.7 4.1-5.8 6.4-9l-74.9-55.4c-2.2 2.2-3.6 5-5.4 7.2z"/>
	<path id="Layer" class="s0" d="m598.8 473.9l-0.5-473.9h-94.2l0.5 471.7c0 99.6 66.7 170.3 164.1 177.5v-92.8c-41.1-6.8-69.9-39.2-69.9-82.5z"/>
</svg>